<?xml version="1.0" encoding="utf-8"?>
<!-- Generator: Adobe Illustrator 16.0.0, SVG Export Plug-In . SVG Version: 6.00 Build 0)  -->
<!DOCTYPE svg PUBLIC "-//W3C//DTD SVG 1.1//EN" "http://www.w3.org/Graphics/SVG/1.1/DTD/svg11.dtd">
<svg version="1.1" id="Calque_1" xmlns="http://www.w3.org/2000/svg" xmlns:xlink="http://www.w3.org/1999/xlink" x="0px" y="0px"
	 width="187.01px" height="60.003px" viewBox="0 0 187.01 60.003" enable-background="new 0 0 187.01 60.003" xml:space="preserve">
<g>
	<path fill="#FFFFFF" d="M24.558,47.909L14.265,25.865v21.479l-6.157,0.282V12.659l7.191-0.282l9.118,20.962V12.94l5.827-0.564
		v34.968L24.558,47.909z"/>
	<path fill="#FFFFFF" d="M36.824,47.626v-35.25h17.907l-0.564,5.499H43.733v8.413h7.426l-0.047,5.922h-7.379v9.917h11.374
		l-0.564,5.499H36.824z"/>
	<path fill="#FFFFFF" d="M64.084,47.909V17.875h-7.191l0.517-5.499H78.09l-0.564,5.499h-6.58v29.469L64.084,47.909z"/>
	<path fill="#FFFFFF" d="M81.943,47.909V12.94l6.909-0.564v34.968L81.943,47.909z"/>
	<path fill="#FFFFFF" d="M95.432,47.626V12.94l6.861-0.564v29.751h11.562l-0.705,5.499H95.432z"/>
	<path fill="#FFFFFF" d="M117.475,47.909V12.94l6.909-0.564v34.968L117.475,47.909z"/>
	<path fill="#FFFFFF" d="M132.067,43.138c-1.614-3.431-2.421-7.873-2.421-13.325c0-5.796,0.861-10.261,2.585-13.395
		c1.723-3.133,4.496-4.7,8.319-4.7c7.3,0,10.951,5.969,10.951,17.907c0,5.358-0.823,9.808-2.468,13.348
		c-1.646,3.541-4.505,5.311-8.577,5.311C136.477,48.285,133.681,46.569,132.067,43.138z M143.841,39.472
		c0.532-2.178,0.799-5.476,0.799-9.894c0-3.541-0.259-6.478-0.775-8.812c-0.518-2.334-1.622-3.501-3.313-3.501
		c-1.692,0-2.789,1.159-3.29,3.478c-0.502,2.319-0.752,5.249-0.752,8.789c0,4.45,0.259,7.763,0.775,9.941s1.605,3.266,3.267,3.266
		C142.211,42.738,143.308,41.65,143.841,39.472z"/>
	<path fill="#FFFFFF" d="M173.216,47.909l-10.294-22.043v21.479l-6.156,0.282V12.659l7.19-0.282l9.118,20.962V12.94l5.828-0.564
		v34.968L173.216,47.909z"/>
</g>
</svg>
